<?xml version="1.0" encoding="utf-8"?>
<svg version="1.1" id="Layer_1" x="0px" y="0px" width="100%" viewBox="0 0 512 512" enable-background="new 0 0 512 512" xmlns="http://www.w3.org/2000/svg">
  <path fill="#16537E" opacity="1.000000" stroke="none" d=" M1.000002,476.000000 C1.000000,330.309265 1.000000,184.618515 1.373002,38.529755 C2.101231,37.805698 2.653542,37.543716 2.783317,37.144409 C8.309880,20.139799 19.613228,8.855068 36.421303,2.930194 C37.091106,2.694087 37.480145,1.661487 38.000000,1.000000 C183.690750,1.000000 329.381500,1.000000 475.470276,1.372997 C476.194305,2.101229 476.456268,2.653576 476.855560,2.783348 C493.860229,8.309844 505.144928,19.613249 511.069824,36.421284 C511.305939,37.091091 512.338501,37.480129 513.000000,37.999992 C513.000000,183.690750 513.000000,329.381500 512.626953,475.470276 C511.898773,476.194366 511.346405,476.456299 511.216614,476.855621 C505.690063,493.860229 494.386719,505.144928 477.578735,511.069855 C476.908936,511.305939 476.519897,512.338562 476.000000,513.000000 C330.309265,513.000000 184.618515,513.000000 38.529743,512.626953 C37.805676,511.898773 37.543686,511.346466 37.144382,511.216675 C20.139811,505.690094 8.855055,494.386749 2.930198,477.578705 C2.694091,476.908875 1.661492,476.519836 1.000002,476.000000 M369.979797,111.554611 C358.181274,97.625580 342.400665,91.782593 324.924255,89.488914 C303.768158,86.712303 283.346130,88.549278 264.700439,99.996933 C250.429443,108.758705 239.139343,120.765961 229.357727,134.151764 C223.441971,142.247253 218.259964,150.878937 212.200943,160.102966 C212.200943,157.216675 212.333633,155.128265 212.178070,153.061554 C211.491974,143.946198 211.434341,134.709854 209.832825,125.752686 C206.681839,108.129555 197.171646,94.960732 178.905945,91.291435 C149.506927,85.385643 122.951721,92.048859 100.881409,112.951286 C91.059555,122.253380 86.988960,134.260818 87.951973,147.832458 C88.467110,155.092392 91.230194,157.517883 98.362938,156.009338 C101.977798,155.244812 105.576950,153.513855 108.692497,151.471313 C114.671318,147.551666 120.238335,143.010513 126.087395,138.884842 C138.069061,130.433517 150.154587,134.088760 153.477066,148.288559 C155.633179,157.503510 156.820526,167.654526 155.341949,176.889832 C148.296158,220.898209 139.901657,264.688751 132.567978,308.653687 C128.268112,334.431091 124.296753,360.355530 125.009735,386.602325 C125.245834,395.294281 126.701546,404.193878 129.190720,412.523071 C132.319229,422.991608 140.764267,427.785858 151.404922,425.347565 C159.397202,423.516144 166.982697,419.871582 174.710709,416.932831 C190.229080,411.031586 197.437576,399.079956 196.882797,383.150787 C196.445038,370.581879 194.000168,358.081757 192.423645,345.553986 C191.518387,338.360260 189.016312,330.970551 189.920624,324.018677 C192.914276,301.005524 200.305496,279.018280 208.178940,257.264435 C218.634995,228.375031 231.340134,200.618805 251.221222,176.771423 C260.235382,165.958954 270.214355,156.181442 283.690735,150.956848 C304.346497,142.948898 319.585663,150.837463 324.114471,172.412262 C325.528717,179.149384 326.269348,186.477264 325.191895,193.193604 C323.013855,206.770996 320.104065,220.328934 316.204926,233.513046 C306.357452,266.810486 295.405090,299.782684 285.677795,333.113525 C280.576324,350.593811 278.109406,368.759705 281.042725,386.957916 C283.608185,402.873901 291.737427,415.417084 308.661530,418.517700 C318.151917,420.256348 328.338593,420.632019 337.865051,419.243866 C359.759735,416.053467 377.963715,404.599457 394.307220,390.209991 C406.802795,379.208374 417.174103,366.480286 423.190338,350.703522 C426.506287,342.007843 427.880920,333.001892 425.954651,323.752106 C424.165924,315.162781 418.059662,313.123260 411.547058,318.844757 C410.552155,319.718811 409.602722,320.663757 408.745514,321.672150 C404.435791,326.741913 400.399811,332.067322 395.831085,336.889343 C385.062958,348.254425 374.272278,359.702179 360.290863,367.267151 C350.560059,372.532196 344.962799,369.557587 342.974976,358.698944 C340.944397,347.606903 341.977051,336.678558 345.669128,326.195068 C351.629028,309.272125 358.052032,292.507751 364.519073,275.768982 C375.756317,246.683319 385.751862,217.264526 388.391052,185.931229 C390.627533,159.379089 387.529724,134.013626 369.979797,111.554611 z"/>
  <path fill="#FEF8E7" opacity="1.000000" stroke="none" d=" M370.195435,111.838486 C387.529724,134.013626 390.627533,159.379089 388.391052,185.931229 C385.751862,217.264526 375.756317,246.683319 364.519073,275.768982 C358.052032,292.507751 351.629028,309.272125 345.669128,326.195068 C341.977051,336.678558 340.944397,347.606903 342.974976,358.698944 C344.962799,369.557587 350.560059,372.532196 360.290863,367.267151 C374.272278,359.702179 385.062958,348.254425 395.831085,336.889343 C400.399811,332.067322 404.435791,326.741913 408.745514,321.672150 C409.602722,320.663757 410.552155,319.718811 411.547058,318.844757 C418.059662,313.123260 424.165924,315.162781 425.954651,323.752106 C427.880920,333.001892 426.506287,342.007843 423.190338,350.703522 C417.174103,366.480286 406.802795,379.208374 394.307220,390.209991 C377.963715,404.599457 359.759735,416.053467 337.865051,419.243866 C328.338593,420.632019 318.151917,420.256348 308.661530,418.517700 C291.737427,415.417084 283.608185,402.873901 281.042725,386.957916 C278.109406,368.759705 280.576324,350.593811 285.677795,333.113525 C295.405090,299.782684 306.357452,266.810486 316.204926,233.513046 C320.104065,220.328934 323.013855,206.770996 325.191895,193.193604 C326.269348,186.477264 325.528717,179.149384 324.114471,172.412262 C319.585663,150.837463 304.346497,142.948898 283.690735,150.956848 C270.214355,156.181442 260.235382,165.958954 251.221222,176.771423 C231.340134,200.618805 218.634995,228.375031 208.178940,257.264435 C200.305496,279.018280 192.914276,301.005524 189.920624,324.018677 C189.016312,330.970551 191.518387,338.360260 192.423645,345.553986 C194.000168,358.081757 196.445038,370.581879 196.882797,383.150787 C197.437576,399.079956 190.229080,411.031586 174.710709,416.932831 C166.982697,419.871582 159.397202,423.516144 151.404922,425.347565 C140.764267,427.785858 132.319229,422.991608 129.190720,412.523071 C126.701546,404.193878 125.245834,395.294281 125.009735,386.602325 C124.296753,360.355530 128.268112,334.431091 132.567978,308.653687 C139.901657,264.688751 148.296158,220.898209 155.341949,176.889832 C156.820526,167.654526 155.633179,157.503510 153.477066,148.288559 C150.154587,134.088760 138.069061,130.433517 126.087395,138.884842 C120.238335,143.010513 114.671318,147.551666 108.692497,151.471313 C105.576950,153.513855 101.977798,155.244812 98.362938,156.009338 C91.230194,157.517883 88.467110,155.092392 87.951973,147.832458 C86.988960,134.260818 91.059555,122.253380 100.881409,112.951286 C122.951721,92.048859 149.506927,85.385643 178.905945,91.291435 C197.171646,94.960732 206.681839,108.129555 209.832825,125.752686 C211.434341,134.709854 211.491974,143.946198 212.178070,153.061554 C212.333633,155.128265 212.200943,157.216675 212.200943,160.102966 C218.259964,150.878937 223.441971,142.247253 229.357727,134.151764 C239.139343,120.765961 250.429443,108.758705 264.700439,99.996933 C283.346130,88.549278 303.768158,86.712303 324.924255,89.488914 C342.400665,91.782593 358.181274,97.625580 370.195435,111.838486 z"/>
</svg>